<mxfile host="app.diagrams.net" modified="2023-10-23T03:37:29.743Z" agent="Mozilla/5.0 (Windows NT 10.0; Win64; x64) AppleWebKit/537.36 (KHTML, like Gecko) Chrome/118.0.0.0 Safari/537.36" etag="_OJeB7dlsDWbkrtF9cqg" version="22.0.6" type="github">
  <diagram name="Page-1" id="JeyCX52DzBTzACsFgG72">
    <mxGraphModel dx="607" dy="324" grid="1" gridSize="10" guides="1" tooltips="1" connect="1" arrows="1" fold="1" page="1" pageScale="1" pageWidth="850" pageHeight="1100" math="0" shadow="0">
      <root>
        <mxCell id="0" />
        <mxCell id="1" parent="0" />
        <mxCell id="PSkRrdFTyunegUdnlb1t-1" value="&lt;div&gt;Algoritma Menghitung Luas dan Keliling lingkaran&lt;/div&gt;&lt;div&gt;1. Mulai&lt;/div&gt;&lt;div&gt;2. Masukkan nilai jari-jari lingkaran (r)&lt;/div&gt;&lt;div&gt;3. Hitung luas lingkaran (L) dengan rumus: L = π * r * r&lt;/div&gt;(π = 22/7 atau 3.14)&lt;div&gt;4. Hitung keliling lingkaran (K) dengan rumus: K = 2 * π * r&lt;/div&gt;&lt;div&gt;5. Tampilkan hasil luas dan keliling lingkaran&lt;/div&gt;&lt;div&gt;6. Selesai&lt;/div&gt;&lt;div style=&quot;&quot;&gt;&lt;br&gt;&lt;/div&gt;" style="text;html=1;align=left;verticalAlign=middle;resizable=0;points=[];autosize=1;strokeColor=none;fillColor=none;" vertex="1" parent="1">
          <mxGeometry x="40" y="80" width="330" height="140" as="geometry" />
        </mxCell>
      </root>
    </mxGraphModel>
  </diagram>
</mxfile>
